<svg width="221" height="85" viewBox="0 0 221 85" fill="none" xmlns="http://www.w3.org/2000/svg">
<rect x="2.5" y="2.5" width="216" height="80" rx="40" fill="white"/>
<rect x="2.5" y="2.5" width="216" height="80" rx="40" stroke="black" stroke-width="5"/>
<path d="M79 45C80.3807 45 81.5 43.8807 81.5 42.5C81.5 41.1193 80.3807 40 79 40L79 45ZM45.2322 40.7322C44.2559 41.7085 44.2559 43.2915 45.2322 44.2678L61.1421 60.1777C62.1184 61.154 63.7014 61.154 64.6777 60.1777C65.654 59.2014 65.654 57.6184 64.6777 56.6421L50.5355 42.5L64.6777 28.3579C65.654 27.3816 65.654 25.7986 64.6777 24.8223C63.7014 23.846 62.1184 23.846 61.1421 24.8223L45.2322 40.7322ZM79 40L47 40L47 45L79 45L79 40Z" fill="black"/>
<path d="M100.831 53.5V31.6818H110.291C111.953 31.6818 113.349 31.9055 114.478 32.353C115.614 32.8004 116.47 33.4325 117.046 34.2493C117.628 35.0661 117.919 36.0284 117.919 37.1364C117.919 37.9389 117.742 38.6705 117.386 39.331C117.038 39.9915 116.548 40.5455 115.916 40.9929C115.284 41.4332 114.546 41.7386 113.7 41.9091V42.1222C114.638 42.1577 115.49 42.3956 116.257 42.8359C117.024 43.2692 117.635 43.8693 118.09 44.6364C118.544 45.3963 118.771 46.2912 118.771 47.321C118.771 48.5142 118.459 49.576 117.834 50.5064C117.216 51.4368 116.335 52.1683 115.192 52.701C114.048 53.2337 112.685 53.5 111.101 53.5H100.831ZM106.754 48.7699H109.524C110.519 48.7699 111.264 48.5852 111.761 48.2159C112.259 47.8395 112.507 47.2855 112.507 46.554C112.507 46.0426 112.39 45.6094 112.156 45.2543C111.921 44.8991 111.587 44.6293 111.154 44.4446C110.728 44.2599 110.213 44.1676 109.609 44.1676H106.754V48.7699ZM106.754 40.5028H109.183C109.702 40.5028 110.16 40.4212 110.558 40.2578C110.955 40.0945 111.264 39.8601 111.484 39.5547C111.712 39.2422 111.825 38.8622 111.825 38.4148C111.825 37.7401 111.584 37.2251 111.101 36.87C110.618 36.5078 110.007 36.3267 109.269 36.3267H106.754V40.5028ZM125.515 53.7557C124.471 53.7557 123.548 53.5852 122.745 53.2443C121.95 52.8963 121.325 52.3707 120.87 51.6676C120.416 50.9645 120.188 50.0696 120.188 48.983C120.188 48.0881 120.341 47.3246 120.646 46.6925C120.952 46.0533 121.378 45.5312 121.925 45.1264C122.472 44.7216 123.107 44.4126 123.832 44.1996C124.563 43.9865 125.352 43.848 126.197 43.7841C127.113 43.7131 127.848 43.6278 128.402 43.5284C128.963 43.4219 129.368 43.2763 129.617 43.0916C129.865 42.8999 129.989 42.6477 129.989 42.3352V42.2926C129.989 41.8665 129.826 41.5398 129.499 41.3125C129.173 41.0852 128.754 40.9716 128.242 40.9716C127.681 40.9716 127.223 41.0959 126.868 41.3445C126.52 41.5859 126.31 41.9588 126.239 42.4631H120.828C120.899 41.4687 121.215 40.5526 121.776 39.7145C122.344 38.8693 123.171 38.1946 124.258 37.6903C125.345 37.179 126.701 36.9233 128.328 36.9233C129.499 36.9233 130.551 37.0618 131.481 37.3388C132.411 37.6087 133.203 37.9886 133.857 38.4787C134.51 38.9616 135.007 39.5298 135.348 40.1832C135.696 40.8295 135.87 41.5327 135.87 42.2926V53.5H130.373V51.1989H130.245C129.918 51.8097 129.521 52.3033 129.052 52.6797C128.59 53.0561 128.061 53.3295 127.465 53.5C126.875 53.6705 126.225 53.7557 125.515 53.7557ZM127.433 50.0483C127.88 50.0483 128.299 49.956 128.69 49.7713C129.087 49.5866 129.411 49.3203 129.659 48.9723C129.908 48.6243 130.032 48.2017 130.032 47.7045V46.3409C129.876 46.4048 129.709 46.4652 129.531 46.522C129.361 46.5788 129.176 46.6321 128.977 46.6818C128.786 46.7315 128.58 46.7777 128.359 46.8203C128.146 46.8629 127.923 46.902 127.688 46.9375C127.234 47.0085 126.861 47.1257 126.57 47.2891C126.286 47.4453 126.073 47.6406 125.93 47.875C125.796 48.1023 125.728 48.358 125.728 48.642C125.728 49.0966 125.888 49.4446 126.207 49.6861C126.527 49.9276 126.935 50.0483 127.433 50.0483ZM146.563 53.7983C144.788 53.7983 143.268 53.4467 142.004 52.7436C140.74 52.0334 139.77 51.0462 139.095 49.782C138.421 48.5107 138.083 47.0369 138.083 45.3608C138.083 43.6847 138.421 42.2145 139.095 40.9503C139.77 39.679 140.74 38.6918 142.004 37.9886C143.268 37.2784 144.788 36.9233 146.563 36.9233C148.169 36.9233 149.557 37.2145 150.729 37.7969C151.908 38.3722 152.821 39.1889 153.467 40.2472C154.113 41.2983 154.44 42.5341 154.447 43.9545H148.992C148.914 43.0952 148.666 42.4418 148.247 41.9943C147.835 41.5398 147.302 41.3125 146.649 41.3125C146.137 41.3125 145.69 41.4616 145.306 41.7599C144.923 42.0511 144.625 42.495 144.411 43.0916C144.198 43.6811 144.092 44.4233 144.092 45.3182C144.092 46.2131 144.198 46.9588 144.411 47.5554C144.625 48.1449 144.923 48.5888 145.306 48.8871C145.69 49.1783 146.137 49.3239 146.649 49.3239C147.082 49.3239 147.465 49.2244 147.799 49.0256C148.133 48.8196 148.403 48.5213 148.609 48.1307C148.822 47.733 148.95 47.25 148.992 46.6818H154.447C154.426 48.1236 154.095 49.3807 153.456 50.4531C152.817 51.5185 151.911 52.3423 150.74 52.9247C149.575 53.5071 148.183 53.7983 146.563 53.7983ZM162.157 49.6222L162.2 42.6335H162.967L166.93 37.1364H173.535L166.888 45.7017H165.226L162.157 49.6222ZM156.873 53.5V31.6818H162.754V53.5H156.873ZM166.973 53.5L163.223 47.0227L167.058 42.8466L173.706 53.5H166.973Z" fill="black"/>
</svg>
