<svg width="101" height="101" viewBox="0 0 101 101" fill="none" xmlns="http://www.w3.org/2000/svg">
<path d="M6.14791 4.8902C4.58882 5.00534 3.49901 7.08863 4.2352 8.54654C17.1607 34.2646 21.749 46.089 22.9946 74.9057C20.4765 78.8304 17.3354 81.7361 15.3805 85.6803C14.5032 88.3596 14.1726 89.8707 16.0058 91.5927C17.8231 92.5396 19.1175 92.0016 20.6037 91.5155C20.747 93.284 21.3927 95.233 22.3325 96.261C22.7646 96.7231 23.3733 96.9947 23.9878 97C27.3879 96.5085 30.1669 94.0788 32.6318 92.0988C35.5547 89.7439 38.5333 86.9582 40.577 84.3193C46.7846 84.134 53.7887 83.2539 59.0422 78.8738C62.4264 76.0519 64.6185 72.4152 66.8034 69.2271C68.7228 66.4265 70.6938 64.1502 73.1669 62.5369C77.8038 66.011 83.1367 69.3921 88.0273 70.6665C89.2213 70.9674 90.5669 70.0988 90.8596 68.8383C91.5423 63.8385 89.6139 59.0191 87.6962 54.9907C85.4898 50.3914 82.2477 45.749 78.4637 41.9213C82.0782 36.2534 85.6973 30.5888 89.3147 24.923C89.869 24.0465 89.8322 22.786 89.2044 21.9668C88.5766 21.1477 87.4081 20.8358 86.4825 21.2278C79.582 24.2244 73.2329 27.8511 67.2817 32.1579C65.244 30.8137 63.3078 29.7067 61.5435 28.7739C61.1146 28.5481 60.6195 28.4654 60.1457 28.5405C58.7746 28.7373 57.7882 30.4222 58.233 31.8078C58.8543 33.7788 59.4076 35.865 59.8882 38.0315C56.7264 40.7952 53.6815 43.7774 50.7292 47.0167C38.4389 27.672 29.3085 18.3558 7.50891 5.20201C7.0984 4.9574 6.61731 4.84676 6.14791 4.8902ZM12.2171 14.1478C33.5086 27.5186 44.6202 41.6024 52.3844 64.2087C52.917 65.7697 55.1256 66.3036 56.2466 65.1423C58.3233 62.9463 61.6838 60.556 66.2517 58.1409C67.1146 57.6699 67.6407 56.59 67.5023 55.5736C66.6073 48.9482 65.5371 42.3748 64.0814 36.1248C72.4157 41.6376 76.6359 43.832 83.503 57.2462C84.6232 59.5421 85.547 62.2273 86.0042 64.4033C82.281 62.7937 78.0962 60.3365 74.4911 57.5184C73.7888 56.9804 72.7966 56.9021 72.0266 57.324C67.8927 59.4782 65.2628 62.9753 62.978 66.3092C60.6931 69.643 58.7116 72.8361 56.1363 74.9833C51.1354 79.153 42.1006 79.4178 34.9492 79.4178C34.5829 79.4053 34.2144 79.4874 33.8824 79.651C29.2167 82.0513 25.2317 84.4742 20.7141 86.1858C22.6462 83.007 25.5256 80.0209 27.3718 77.0449C27.6358 76.6087 27.7664 76.0839 27.7397 75.5668C26.6731 48.8889 22.3016 35.0967 12.2171 14.1478ZM74.6014 49.7C73.9514 49.7 73.4244 50.2574 73.4244 50.9448C73.4244 51.6323 73.9514 52.1895 74.6014 52.1895C75.2515 52.1895 75.7785 51.6323 75.7785 50.9448C75.7785 50.2574 75.2515 49.7 74.6014 49.7Z" fill="black"/>
</svg>
