<svg width="101" height="101" viewBox="0 0 101 101" fill="none" xmlns="http://www.w3.org/2000/svg">
<rect x="2.5" y="2.5" width="96" height="96" rx="48" fill="#FA46AE"/>
<rect x="2.5" y="2.5" width="96" height="96" rx="48" stroke="white" stroke-width="5"/>
<path fill-rule="evenodd" clip-rule="evenodd" d="M68.6777 51.8579L52.7678 67.7678C51.7915 68.7441 50.2085 68.7441 49.2322 67.7678L33.3223 51.8579C32.346 50.8816 32.346 49.2986 33.3223 48.3223C34.2986 47.346 35.8816 47.346 36.8579 48.3223L48.5 59.9645L48.5 34C48.5 32.6193 49.6193 31.5 51 31.5C52.3807 31.5 53.5 32.6193 53.5 34L53.5 59.9645L65.1421 48.3223C66.1184 47.346 67.7014 47.346 68.6777 48.3223C69.654 49.2986 69.654 50.8816 68.6777 51.8579Z" fill="white"/>
</svg>
