<svg width="293" height="85" viewBox="0 0 293 85" fill="none" xmlns="http://www.w3.org/2000/svg">
<rect x="2.5" y="2.5" width="288" height="80" rx="40" fill="white"/>
<rect x="2.5" y="2.5" width="288" height="80" rx="40" stroke="black" stroke-width="5"/>
<path d="M40.2754 53.5V31.6818H49.693C51.3123 31.6818 52.7292 31.9766 53.9437 32.5661C55.1582 33.1555 56.1028 34.0043 56.7775 35.1122C57.4522 36.2202 57.7896 37.5483 57.7896 39.0966C57.7896 40.6591 57.4416 41.9766 56.7456 43.049C56.0566 44.1214 55.0872 44.9311 53.8372 45.478C52.5943 46.0249 51.1419 46.2983 49.4799 46.2983H43.8549V41.696H48.2868C48.9828 41.696 49.5758 41.6108 50.0659 41.4403C50.563 41.2628 50.943 40.9822 51.2058 40.5987C51.4757 40.2152 51.6106 39.7145 51.6106 39.0966C51.6106 38.4716 51.4757 37.9638 51.2058 37.5732C50.943 37.1754 50.563 36.8842 50.0659 36.6996C49.5758 36.5078 48.9828 36.4119 48.2868 36.4119H46.1987V53.5H40.2754ZM53.0595 43.4858L58.514 53.5H52.0794L46.7527 43.4858H53.0595ZM67.889 53.7983C66.1419 53.7983 64.6362 53.4645 63.372 52.7969C62.1149 52.1222 61.1454 51.1562 60.4636 49.8991C59.7889 48.6349 59.4515 47.1222 59.4515 45.3608C59.4515 43.6705 59.7924 42.1932 60.4743 40.929C61.1561 39.6648 62.1184 38.6811 63.3613 37.978C64.6042 37.2749 66.0708 36.9233 67.7612 36.9233C68.997 36.9233 70.1156 37.1151 71.117 37.4986C72.1184 37.8821 72.9743 38.4396 73.6845 39.1712C74.3947 39.8956 74.9416 40.7763 75.3251 41.8132C75.7086 42.8501 75.9004 44.0185 75.9004 45.3182V46.6818H61.2839V43.4432H70.4885C70.4814 42.9744 70.3606 42.5625 70.1262 42.2074C69.899 41.8452 69.59 41.5646 69.1994 41.3658C68.8159 41.1598 68.3791 41.0568 67.889 41.0568C67.4132 41.0568 66.9764 41.1598 66.5787 41.3658C66.1809 41.5646 65.8613 41.8416 65.6199 42.1967C65.3855 42.5518 65.2612 42.9673 65.247 43.4432V46.9375C65.247 47.4631 65.3571 47.9318 65.5772 48.3438C65.7974 48.7557 66.1135 49.0788 66.5254 49.3132C66.9373 49.5476 67.4345 49.6648 68.0169 49.6648C68.4217 49.6648 68.791 49.608 69.1248 49.4943C69.4657 49.3807 69.7569 49.2173 69.9984 49.0043C70.2399 48.7841 70.4174 48.5213 70.5311 48.2159H75.9004C75.7157 49.3523 75.2789 50.3395 74.59 51.1776C73.9011 52.0085 72.9885 52.6548 71.8521 53.1165C70.7228 53.571 69.4018 53.7983 67.889 53.7983ZM82.8597 53.7557C81.8157 53.7557 80.8924 53.5852 80.0898 53.2443C79.2944 52.8963 78.6694 52.3707 78.2148 51.6676C77.7603 50.9645 77.533 50.0696 77.533 48.983C77.533 48.0881 77.6857 47.3246 77.9911 46.6925C78.2965 46.0533 78.7227 45.5312 79.2695 45.1264C79.8164 44.7216 80.4521 44.4126 81.1765 44.1996C81.908 43.9865 82.6964 43.848 83.5415 43.7841C84.4577 43.7131 85.1928 43.6278 85.7468 43.5284C86.3079 43.4219 86.7127 43.2763 86.9613 43.0916C87.2099 42.8999 87.3342 42.6477 87.3342 42.3352V42.2926C87.3342 41.8665 87.1708 41.5398 86.8441 41.3125C86.5174 41.0852 86.0984 40.9716 85.587 40.9716C85.0259 40.9716 84.5678 41.0959 84.2127 41.3445C83.8647 41.5859 83.6552 41.9588 83.5842 42.4631H78.1722C78.2433 41.4687 78.5593 40.5526 79.1204 39.7145C79.6886 38.8693 80.516 38.1946 81.6026 37.6903C82.6893 37.179 84.0458 36.9233 85.6722 36.9233C86.8441 36.9233 87.8952 37.0618 88.8256 37.3388C89.756 37.6087 90.5479 37.9886 91.2013 38.4787C91.8548 38.9616 92.3519 39.5298 92.6928 40.1832C93.0408 40.8295 93.2148 41.5327 93.2148 42.2926V53.5H87.7177V51.1989H87.5898C87.2631 51.8097 86.8654 52.3033 86.3967 52.6797C85.935 53.0561 85.4059 53.3295 84.8093 53.5C84.2198 53.6705 83.57 53.7557 82.8597 53.7557ZM84.7773 50.0483C85.2248 50.0483 85.6438 49.956 86.0344 49.7713C86.4322 49.5866 86.7553 49.3203 87.0039 48.9723C87.2525 48.6243 87.3768 48.2017 87.3768 47.7045V46.3409C87.2205 46.4048 87.0536 46.4652 86.8761 46.522C86.7056 46.5788 86.521 46.6321 86.3221 46.6818C86.1303 46.7315 85.9244 46.7777 85.7042 46.8203C85.4911 46.8629 85.2674 46.902 85.033 46.9375C84.5785 47.0085 84.2056 47.1257 83.9144 47.2891C83.6303 47.4453 83.4173 47.6406 83.2752 47.875C83.1403 48.1023 83.0728 48.358 83.0728 48.642C83.0728 49.0966 83.2326 49.4446 83.5522 49.6861C83.8718 49.9276 84.2802 50.0483 84.7773 50.0483ZM101.948 53.7131C100.783 53.7131 99.7108 53.4077 98.7306 52.7969C97.7576 52.1861 96.9764 51.2592 96.3869 50.0163C95.8045 48.7734 95.5133 47.2074 95.5133 45.3182C95.5133 43.3437 95.8187 41.7386 96.4295 40.5028C97.0474 39.267 97.8429 38.3615 98.8159 37.7862C99.796 37.2109 100.826 36.9233 101.905 36.9233C102.715 36.9233 103.425 37.0653 104.036 37.3494C104.647 37.6264 105.158 37.9993 105.57 38.468C105.982 38.9297 106.295 39.4375 106.508 39.9915H106.593V31.6818H112.474V53.5H106.635V50.8153H106.508C106.28 51.3693 105.954 51.8665 105.528 52.3068C105.108 52.7401 104.597 53.0845 103.993 53.3402C103.397 53.5888 102.715 53.7131 101.948 53.7131ZM104.121 49.196C104.661 49.196 105.123 49.0398 105.506 48.7273C105.897 48.4077 106.195 47.9602 106.401 47.3849C106.614 46.8026 106.721 46.1136 106.721 45.3182C106.721 44.5085 106.614 43.8161 106.401 43.2408C106.195 42.6584 105.897 42.2145 105.506 41.9091C105.123 41.5966 104.661 41.4403 104.121 41.4403C103.581 41.4403 103.12 41.5966 102.736 41.9091C102.36 42.2145 102.069 42.6584 101.863 43.2408C101.664 43.8161 101.564 44.5085 101.564 45.3182C101.564 46.1278 101.664 46.8239 101.863 47.4062C102.069 47.9815 102.36 48.4254 102.736 48.7379C103.12 49.0433 103.581 49.196 104.121 49.196ZM121.337 53.5V37.1364H126.92V40.2472H127.09C127.431 39.2244 128.013 38.4148 128.837 37.8182C129.661 37.2216 130.641 36.9233 131.778 36.9233C132.928 36.9233 133.919 37.2287 134.75 37.8395C135.581 38.4432 136.081 39.2457 136.252 40.2472H136.422C136.699 39.2457 137.289 38.4432 138.191 37.8395C139.093 37.2287 140.151 36.9233 141.366 36.9233C142.935 36.9233 144.206 37.4276 145.18 38.4361C146.16 39.4446 146.65 40.7869 146.65 42.4631V53.5H140.769V43.9545C140.769 43.2372 140.588 42.6761 140.226 42.2713C139.863 41.8594 139.377 41.6534 138.766 41.6534C138.162 41.6534 137.683 41.8594 137.328 42.2713C136.98 42.6761 136.806 43.2372 136.806 43.9545V53.5H131.181V43.9545C131.181 43.2372 131 42.6761 130.638 42.2713C130.275 41.8594 129.789 41.6534 129.178 41.6534C128.773 41.6534 128.425 41.7457 128.134 41.9304C127.843 42.1151 127.616 42.3814 127.452 42.7294C127.296 43.0703 127.218 43.4787 127.218 43.9545V53.5H121.337ZM157.434 53.7983C155.658 53.7983 154.138 53.4467 152.874 52.7436C151.61 52.0334 150.64 51.0462 149.966 49.782C149.291 48.5107 148.953 47.0369 148.953 45.3608C148.953 43.6847 149.291 42.2145 149.966 40.9503C150.64 39.679 151.61 38.6918 152.874 37.9886C154.138 37.2784 155.658 36.9233 157.434 36.9233C159.209 36.9233 160.729 37.2784 161.993 37.9886C163.257 38.6918 164.227 39.679 164.902 40.9503C165.576 42.2145 165.914 43.6847 165.914 45.3608C165.914 47.0369 165.576 48.5107 164.902 49.782C164.227 51.0462 163.257 52.0334 161.993 52.7436C160.729 53.4467 159.209 53.7983 157.434 53.7983ZM157.476 49.4517C157.973 49.4517 158.403 49.2848 158.765 48.951C159.127 48.6172 159.408 48.1413 159.607 47.5234C159.806 46.9055 159.905 46.1705 159.905 45.3182C159.905 44.4588 159.806 43.7237 159.607 43.1129C159.408 42.495 159.127 42.0192 158.765 41.6854C158.403 41.3516 157.973 41.1847 157.476 41.1847C156.951 41.1847 156.5 41.3516 156.123 41.6854C155.747 42.0192 155.459 42.495 155.26 43.1129C155.061 43.7237 154.962 44.4588 154.962 45.3182C154.962 46.1705 155.061 46.9055 155.26 47.5234C155.459 48.1413 155.747 48.6172 156.123 48.951C156.5 49.2848 156.951 49.4517 157.476 49.4517ZM168.3 53.5V37.1364H174.01V40.2472H174.181C174.479 39.0966 174.951 38.255 175.598 37.7223C176.251 37.1896 177.015 36.9233 177.888 36.9233C178.144 36.9233 178.396 36.9446 178.645 36.9872C178.9 37.0227 179.145 37.076 179.38 37.147V42.1648C179.088 42.0653 178.73 41.9908 178.304 41.9411C177.877 41.8913 177.512 41.8665 177.206 41.8665C176.631 41.8665 176.113 41.9979 175.651 42.2607C175.196 42.5163 174.838 42.8786 174.575 43.3473C174.312 43.8089 174.181 44.3523 174.181 44.9773V53.5H168.3ZM188.211 53.7983C186.464 53.7983 184.958 53.4645 183.694 52.7969C182.437 52.1222 181.468 51.1562 180.786 49.8991C180.111 48.6349 179.774 47.1222 179.774 45.3608C179.774 43.6705 180.115 42.1932 180.797 40.929C181.478 39.6648 182.441 38.6811 183.684 37.978C184.926 37.2749 186.393 36.9233 188.083 36.9233C189.319 36.9233 190.438 37.1151 191.439 37.4986C192.441 37.8821 193.297 38.4396 194.007 39.1712C194.717 39.8956 195.264 40.7763 195.647 41.8132C196.031 42.8501 196.223 44.0185 196.223 45.3182V46.6818H181.606V43.4432H190.811C190.804 42.9744 190.683 42.5625 190.449 42.2074C190.221 41.8452 189.912 41.5646 189.522 41.3658C189.138 41.1598 188.701 41.0568 188.211 41.0568C187.735 41.0568 187.299 41.1598 186.901 41.3658C186.503 41.5646 186.184 41.8416 185.942 42.1967C185.708 42.5518 185.583 42.9673 185.569 43.4432V46.9375C185.569 47.4631 185.679 47.9318 185.9 48.3438C186.12 48.7557 186.436 49.0788 186.848 49.3132C187.26 49.5476 187.757 49.6648 188.339 49.6648C188.744 49.6648 189.113 49.608 189.447 49.4943C189.788 49.3807 190.079 49.2173 190.321 49.0043C190.562 48.7841 190.74 48.5213 190.853 48.2159H196.223C196.038 49.3523 195.601 50.3395 194.912 51.1776C194.223 52.0085 193.311 52.6548 192.174 53.1165C191.045 53.571 189.724 53.7983 188.211 53.7983Z" fill="black"/>
<path fill-rule="evenodd" clip-rule="evenodd" d="M253.768 40.7322C254.744 41.7086 254.744 43.2915 253.768 44.2678L237.858 60.1777C236.882 61.154 235.299 61.154 234.322 60.1777C233.346 59.2014 233.346 57.6185 234.322 56.6421L245.964 45L220 45C218.619 45 217.5 43.8807 217.5 42.5C217.5 41.1193 218.619 40 220 40L245.964 40L234.322 28.3579C233.346 27.3816 233.346 25.7987 234.322 24.8223C235.299 23.846 236.882 23.846 237.858 24.8223L253.768 40.7322Z" fill="black"/>
</svg>
