<svg width="101" height="101" viewBox="0 0 101 101" fill="none" xmlns="http://www.w3.org/2000/svg">
<rect x="98.5" y="98.5" width="96" height="96" rx="48" transform="rotate(-180 98.5 98.5)" fill="#FA46AE"/>
<rect x="98.5" y="98.5" width="96" height="96" rx="48" transform="rotate(-180 98.5 98.5)" stroke="white" stroke-width="5"/>
<path d="M47.5 67C47.5 68.3807 48.6193 69.5 50 69.5C51.3807 69.5 52.5 68.3807 52.5 67L47.5 67ZM51.7678 33.2322C50.7915 32.2559 49.2085 32.2559 48.2322 33.2322L32.3223 49.1421C31.346 50.1184 31.346 51.7014 32.3223 52.6777C33.2986 53.654 34.8816 53.654 35.8579 52.6777L50 38.5355L64.1421 52.6777C65.1185 53.654 66.7014 53.654 67.6777 52.6777C68.654 51.7014 68.654 50.1184 67.6777 49.1421L51.7678 33.2322ZM52.5 67L52.5 35L47.5 35L47.5 67L52.5 67Z" fill="white"/>
</svg>
